<?xml version="1.0" standalone="no"?>
<!DOCTYPE svg PUBLIC "-//W3C//DTD SVG 20010904//EN"
 "http://www.w3.org/TR/2001/REC-SVG-20010904/DTD/svg10.dtd">
<svg version="1.0" xmlns="http://www.w3.org/2000/svg"
 width="1080.000000pt" height="1080.000000pt" viewBox="0 0 1080.000000 1080.000000"
 preserveAspectRatio="xMidYMid meet">

<g transform="translate(0.000000,1080.000000) scale(0.100000,-0.100000)"
fill="#000000" stroke="none">
<path d="M3198 9193 c-19 -32 -41 -57 -49 -56 -8 1 -41 7 -74 13 -64 13 -137
7 -215 -16 -82 -24 -157 -127 -182 -248 -19 -87 12 -207 73 -285 l19 -24 -78
-31 c-275 -111 -517 -383 -593 -667 l-12 -44 -249 -130 c-235 -122 -254 -134
-316 -200 -197 -206 -238 -514 -106 -783 63 -129 217 -259 357 -300 54 -16 58
-19 53 -42 -27 -128 -32 -1159 -7 -1410 6 -58 22 -235 36 -395 45 -524 60
-627 116 -810 58 -186 153 -362 260 -480 l50 -54 -42 -98 c-23 -54 -61 -142
-86 -196 -60 -135 -83 -236 -83 -371 0 -178 43 -301 139 -396 68 -66 137 -101
331 -168 494 -169 978 -262 1530 -293 295 -17 1697 -18 1915 -1 393 29 682 65
1065 133 931 165 1137 236 1461 507 109 92 138 127 179 215 53 114 59 243 15
366 -16 46 -101 181 -174 276 -69 91 -226 249 -324 328 -48 38 -84 73 -80 77
4 4 66 54 138 111 155 124 382 343 511 492 78 91 104 131 163 250 122 245 199
516 221 777 6 69 20 193 31 275 39 300 50 456 55 780 5 321 5 334 -20 477 -55
321 -128 596 -190 723 -68 138 -173 259 -363 422 -66 56 -113 120 -139 189
l-17 45 63 130 c58 121 63 136 62 198 -1 185 -136 326 -312 325 -65 -1 -146
-33 -184 -73 l-27 -28 -77 25 c-63 21 -97 26 -187 26 -143 1 -215 -15 -265
-61 -49 -43 -63 -85 -64 -192 -1 -98 18 -166 65 -231 16 -22 27 -45 24 -50 -3
-5 -26 -23 -49 -40 l-44 -29 -6 32 c-3 17 -21 146 -41 286 -52 361 -92 488
-216 676 -38 58 -74 105 -78 105 -5 0 -184 -145 -397 -321 -214 -177 -407
-333 -428 -348 -39 -26 -41 -26 -260 -29 -634 -10 -1421 57 -2066 176 l-145
27 3 72 c7 136 -53 256 -145 287 -78 27 -162 31 -246 11 l-75 -18 -87 72 c-47
39 -90 71 -95 71 -4 0 -23 -26 -42 -57z m4013 -71 c87 -136 132 -240 163 -367
28 -115 103 -668 95 -692 -14 -38 -38 -167 -48 -255 -7 -58 -18 -103 -35 -135
l-25 -48 -2 133 c-2 72 -3 144 -4 160 -1 15 -5 95 -9 177 -4 83 -9 157 -11
165 -2 8 -6 58 -10 110 -10 147 -19 181 -54 212 -48 43 -98 39 -207 -17 -49
-24 -129 -75 -179 -112 -143 -108 -407 -384 -626 -653 l-37 -45 -108 44 c-161
66 -371 165 -375 176 -4 13 185 145 272 191 79 42 185 141 258 241 43 60 109
119 379 342 180 148 370 305 422 349 52 45 97 81 100 81 3 1 21 -25 41 -57z
m-3885 -4 c35 -28 64 -52 64 -53 0 0 -19 -20 -43 -43 l-43 -43 -47 61 c-26 33
-47 63 -47 66 0 9 40 64 47 64 3 0 34 -23 69 -52z m-195 -41 c23 -9 57 -41 93
-86 38 -47 64 -71 78 -71 12 0 51 29 94 69 79 76 113 91 204 91 81 0 130 -17
170 -59 62 -64 77 -166 40 -264 -27 -73 -97 -137 -149 -137 -12 0 -30 -9 -40
-19 -19 -19 -19 -21 11 -107 27 -80 30 -97 25 -174 -3 -47 -12 -101 -21 -121
-33 -79 -111 -114 -231 -107 -79 5 -144 33 -214 92 -74 62 -106 60 -216 -12
-111 -73 -155 -108 -239 -190 -116 -115 -164 -187 -193 -290 -133 -492 -167
-717 -167 -1117 0 -271 6 -345 52 -615 25 -148 38 -408 21 -424 -3 -4 -62 18
-129 49 -68 30 -125 53 -127 51 -2 -2 21 -32 51 -66 55 -61 106 -149 106 -181
0 -16 -8 -16 -91 7 -50 14 -95 24 -100 22 -4 -2 29 -70 76 -153 92 -164 91
-161 23 -196 -21 -11 -38 -23 -38 -27 0 -5 16 -24 36 -43 20 -18 63 -64 96
-101 l59 -67 -50 -26 c-28 -14 -51 -29 -51 -33 0 -5 14 -21 30 -37 43 -42 115
-150 205 -307 124 -219 207 -311 422 -474 192 -144 449 -288 663 -372 526
-204 1751 -195 3100 24 694 112 891 166 1081 294 119 81 220 224 249 355 14
60 15 208 1 252 -11 37 -16 33 92 57 91 21 137 46 187 103 77 88 151 269 239
588 135 489 217 1156 196 1605 -14 310 -49 415 -211 630 -95 126 -188 211
-281 257 -63 31 -87 37 -157 41 -91 5 -139 -7 -252 -59 -83 -39 -112 -38 -171
10 -124 101 -129 109 -143 228 -5 50 -13 98 -16 107 -4 10 15 29 62 63 122 87
115 74 65 128 -57 62 -83 124 -89 210 -9 142 27 195 150 215 111 19 228 9 323
-29 l80 -31 23 30 c56 72 154 102 243 76 109 -31 184 -134 184 -251 0 -53 -7
-75 -63 -190 -72 -149 -72 -152 -16 -264 28 -57 52 -86 122 -148 209 -187 304
-301 368 -438 44 -95 131 -437 169 -660 27 -158 27 -164 22 -505 -5 -340 -12
-441 -56 -780 -11 -85 -25 -207 -30 -270 -20 -241 -94 -497 -213 -738 -57
-116 -85 -159 -150 -235 -180 -206 -405 -416 -610 -570 -60 -44 -108 -83 -108
-87 0 -3 14 -14 31 -24 18 -10 75 -54 129 -97 227 -182 449 -468 486 -624 26
-113 3 -234 -64 -333 -58 -86 -294 -267 -451 -346 -155 -78 -400 -145 -826
-226 -997 -188 -1475 -222 -2743 -194 -676 15 -799 23 -1122 75 -374 60 -912
209 -1101 305 -140 70 -202 164 -230 345 -14 90 1 227 35 324 14 39 61 153
105 254 l81 183 -61 66 c-113 124 -198 274 -259 462 -58 177 -62 209 -137
1010 -23 248 -27 348 -31 762 -2 283 0 543 7 640 19 299 155 1353 185 1436 8
23 31 75 50 115 19 39 46 111 61 159 15 48 47 122 71 165 134 234 306 380 537
454 56 18 103 34 105 35 2 1 -17 23 -42 48 -70 72 -101 145 -101 236 0 123 58
217 155 251 64 23 182 21 241 -4z m901 -529 c95 -81 229 -191 298 -244 69 -54
170 -136 225 -183 55 -48 121 -104 148 -125 26 -21 47 -44 47 -51 0 -15 -85
-81 -150 -116 -77 -43 -125 -58 -237 -74 -59 -9 -116 -18 -126 -21 -27 -8 -64
38 -222 277 -96 144 -170 244 -224 301 -45 47 -81 94 -81 105 0 11 -9 46 -20
78 -11 32 -20 61 -20 65 0 4 16 11 36 15 39 7 119 73 129 106 4 11 10 19 15
17 5 -2 86 -69 182 -150z m308 73 c539 -82 1057 -121 1608 -121 l323 0 -43
-61 c-60 -85 -118 -136 -165 -145 -21 -4 -402 -2 -848 5 l-810 12 -60 46 c-33
26 -125 101 -204 167 -79 67 -155 131 -170 142 l-26 22 100 -19 c55 -10 188
-32 295 -48z m2905 -85 c19 -28 38 -222 56 -556 13 -255 8 -448 -13 -461 -31
-20 -336 16 -516 61 -131 33 -492 150 -492 159 0 15 250 300 381 435 199 205
336 313 469 367 63 25 96 24 115 -5z m-3464 -289 c63 -73 112 -141 212 -297
48 -74 103 -156 122 -181 l35 -47 -77 -17 c-176 -37 -407 -97 -558 -144 l-160
-50 -45 20 c-25 11 -89 46 -142 77 -113 66 -108 51 -83 237 8 61 20 155 26
210 7 55 13 102 15 104 2 2 19 -10 39 -28 133 -117 363 -133 468 -33 40 37 67
94 74 153 3 27 11 49 17 49 6 0 32 -24 57 -53z m-715 -144 c-20 -180 -30 -237
-37 -213 -4 14 -7 72 -8 129 -1 84 2 108 16 123 28 31 36 21 29 -39z m2633 -2
l104 -6 -61 -43 c-51 -35 -62 -48 -62 -71 0 -36 18 -51 116 -99 l82 -39 -387
-6 c-336 -5 -750 -26 -818 -42 -33 -8 -28 0 15 27 72 44 112 88 112 122 0 39
-7 48 -92 116 -38 29 -68 56 -68 58 0 6 927 -9 1059 -17z m-2731 -103 c1 -51
11 -149 22 -217 23 -142 24 -140 -52 -165 -52 -17 -67 -14 -168 31 -36 17 -87
36 -113 43 -45 12 -48 15 -42 39 10 39 85 138 162 212 63 62 171 149 184 149
3 0 6 -42 7 -92z m4542 -90 c0 -53 37 -112 108 -174 37 -33 78 -66 91 -74 22
-15 21 -16 -56 -70 -92 -65 -93 -65 -93 -48 0 7 -20 62 -45 122 -44 108 -44
109 -35 180 5 39 10 79 10 89 0 10 5 15 10 12 6 -3 10 -20 10 -37z m-5476
-190 c-10 -18 -25 -58 -35 -88 l-17 -55 -54 -11 c-131 -26 -214 -69 -277 -141
-80 -90 -140 -252 -141 -376 0 -61 25 -185 50 -243 40 -92 139 -212 232 -281
55 -40 64 -67 21 -57 -65 15 -172 76 -233 132 -125 115 -183 256 -184 447 0
168 48 299 156 418 47 51 78 71 268 172 118 62 218 114 223 114 4 1 0 -14 -9
-31z m6216 -20 l65 -31 -45 -7 c-25 -4 -90 -13 -145 -20 -166 -20 -236 -49
-385 -161 l-35 -27 -44 19 c-37 16 -41 21 -31 34 20 24 167 118 250 160 166
85 248 92 370 33z m-774 -83 l22 -54 -42 21 c-22 11 -42 22 -44 23 -4 3 32 65
38 65 3 0 15 -25 26 -55z m-4746 -12 c47 -19 101 -40 120 -46 34 -11 180 -143
180 -163 0 -5 -12 -17 -27 -26 -28 -16 -28 -16 -93 44 -36 33 -85 71 -109 85
-46 28 -135 53 -188 53 -41 0 -46 10 -33 60 13 48 16 48 150 -7z m438 -57
l111 -63 -96 -36 -96 -36 -25 32 c-14 18 -45 51 -68 74 l-43 41 47 25 c26 13
50 25 53 26 4 0 56 -28 117 -63z m3097 14 c252 -22 572 -70 711 -105 72 -19
269 -114 258 -125 -13 -11 -942 -306 -1058 -335 -126 -32 -294 -60 -471 -79
-690 -75 -1129 -59 -1600 60 -211 54 -520 165 -678 246 l-62 31 60 19 c221 68
466 117 860 173 496 71 845 108 1195 129 117 7 662 -3 785 -14z m2087 -108
c77 -38 130 -92 166 -171 37 -80 43 -233 13 -350 -21 -85 -69 -187 -86 -185
-5 1 -24 29 -41 62 l-31 62 25 50 c21 44 25 65 26 153 1 92 -2 107 -26 153
-34 64 -105 128 -165 148 -89 30 -203 16 -273 -34 -28 -20 -31 -20 -60 -5 -25
13 -29 19 -20 35 18 34 102 84 180 106 26 8 83 12 136 11 79 -2 99 -7 156 -35z
m-691 -45 c191 -98 311 -195 502 -408 84 -93 153 -174 155 -179 2 -5 -35 15
-82 44 -216 136 -479 209 -756 209 -384 0 -651 -109 -1170 -476 -94 -67 -175
-117 -188 -117 -12 0 -63 21 -113 46 -448 224 -987 213 -1484 -30 -209 -103
-371 -218 -569 -406 -186 -176 -253 -220 -384 -246 -100 -21 -118 -31 -185
-104 -172 -185 -297 -397 -349 -588 -30 -113 -30 -297 0 -412 48 -181 175
-382 321 -507 314 -271 737 -412 1421 -475 179 -16 746 -16 930 1 559 50 1097
167 1565 341 258 96 412 183 705 398 17 12 19 9 30 -45 24 -113 -20 -270 -108
-386 -77 -101 -263 -209 -449 -261 -336 -94 -1246 -231 -1863 -281 -844 -68
-1587 -26 -1930 110 -245 97 -557 281 -755 447 -131 109 -206 201 -301 367
-87 153 -146 244 -180 281 l-23 25 54 29 c30 16 55 31 55 35 0 4 -34 40 -76
81 -41 41 -85 87 -96 103 -20 27 -20 27 0 45 11 9 27 28 36 42 15 24 13 29
-44 130 -32 57 -58 106 -56 108 2 1 36 -6 75 -17 l71 -20 0 38 c0 34 -15 96
-35 144 -7 18 -6 18 31 2 71 -31 70 -32 85 27 23 91 16 278 -19 493 -37 220
-52 376 -52 527 l0 108 78 122 c43 68 92 147 108 177 19 35 54 76 100 115 38
34 120 106 182 162 61 55 126 108 144 118 l34 18 135 -74 c75 -41 166 -87 202
-103 37 -17 67 -33 67 -37 0 -3 -61 -48 -136 -99 -138 -93 -278 -214 -290
-251 -4 -13 0 -24 13 -33 16 -13 23 -9 73 44 69 72 111 105 281 220 l136 92
49 -22 c101 -43 344 -122 494 -159 267 -66 490 -97 775 -107 309 -11 939 44
1228 107 50 11 92 18 94 16 6 -5 -141 -114 -225 -166 -40 -24 -72 -49 -72 -55
0 -6 6 -19 13 -29 13 -18 22 -13 143 66 71 47 164 118 206 157 l76 71 458 146
c253 81 476 155 497 166 21 10 66 42 100 69 75 61 123 88 158 89 14 0 64 -20
110 -43z m-4993 -68 c29 -10 83 -34 119 -55 65 -36 65 -36 45 -56 -19 -19 -21
-19 -68 -3 -62 22 -187 31 -238 17 -36 -10 -38 -10 -32 11 3 12 8 41 12 64 4
27 12 43 23 46 25 6 81 -4 139 -24z m-753 -164 c-14 -66 -29 -181 -35 -255
-19 -245 -20 -247 -37 -225 -8 11 -29 48 -45 83 -57 119 -47 274 25 392 22 36
108 133 113 127 2 -1 -8 -57 -21 -122z m5835 -179 c205 -45 409 -136 573 -258
86 -65 99 -79 117 -125 27 -71 44 -177 36 -225 -11 -67 -71 -183 -122 -238
-59 -63 -98 -84 -217 -114 -162 -42 -143 -46 -151 35 -8 88 -80 313 -140 435
-59 121 -146 260 -202 323 -79 88 -214 141 -359 141 -235 0 -441 -146 -484
-342 -45 -203 -9 -469 98 -723 28 -65 51 -123 51 -127 0 -11 -276 -2 -370 12
-73 10 -208 38 -306 61 l-51 13 5 70 c5 79 -16 226 -54 385 -13 57 -23 105
-22 106 2 1 14 8 28 15 14 7 93 61 175 119 402 285 631 399 899 446 107 19
391 14 496 -9z m919 -272 c-28 -54 -72 -130 -97 -169 l-46 -70 -9 47 c-9 48
-9 48 56 146 36 53 82 132 104 173 l38 76 3 -52 c3 -45 -3 -63 -49 -151z
m-1394 -77 c22 -31 18 -72 -9 -103 -64 -75 -182 10 -135 97 26 50 111 53 144
6z m1441 -109 c-24 -533 -110 -1029 -260 -1494 -73 -226 -146 -353 -224 -393
-35 -18 -141 -45 -148 -38 -2 1 6 32 18 67 26 79 29 239 6 310 l-14 45 97 95
c106 105 152 181 168 280 17 100 -9 181 -85 270 -55 65 -84 119 -84 159 0 23
12 42 53 81 28 27 55 50 59 50 4 0 35 33 68 73 74 87 136 208 153 297 10 52
24 83 73 155 33 50 74 114 90 142 16 29 31 53 33 53 2 0 1 -69 -3 -152z
m-3085 63 c127 -29 231 -66 355 -125 l110 -54 22 -78 c29 -107 62 -309 62
-377 0 -61 -14 -103 -38 -112 -8 -3 -47 -26 -85 -52 -38 -25 -102 -60 -142
-78 -94 -41 -272 -101 -279 -94 -3 3 -10 38 -17 79 -6 41 -28 127 -49 190
-149 453 -363 661 -657 636 -146 -12 -260 -69 -375 -187 -75 -78 -130 -176
-149 -266 -24 -120 10 -299 98 -502 29 -69 53 -128 53 -132 0 -11 -83 -1 -205
23 -138 27 -323 90 -447 152 -100 50 -268 154 -268 166 0 3 24 14 53 24 80 28
171 93 307 222 149 140 225 201 345 281 230 152 461 247 720 294 137 25 458
20 586 -10z m1978 -109 c65 -33 89 -118 51 -179 -37 -61 -97 -82 -161 -56 -83
33 -110 135 -52 203 44 53 101 64 162 32z m-412 -252 c27 -55 -49 -97 -83 -46
-15 24 -15 28 0 52 22 33 65 30 83 -6z m-2341 -32 c28 -54 -1 -111 -62 -124
-46 -9 -94 35 -94 85 0 87 116 116 156 39z m401 -7 c105 -48 96 -202 -15 -241
-151 -52 -245 172 -101 243 44 21 65 21 116 -2z m2048 -161 c0 -18 -6 -26 -23
-28 -24 -4 -38 18 -28 44 3 9 15 14 28 12 17 -2 23 -10 23 -28z m900 -82 c-37
-35 -71 -64 -74 -65 -6 -3 -55 67 -49 71 2 2 33 10 69 19 36 9 76 21 90 26 13
5 26 10 28 10 2 1 -27 -27 -64 -61z m-160 -54 c19 -26 35 -50 35 -55 0 -9
-143 -131 -260 -220 -272 -208 -582 -367 -852 -437 -29 -8 -38 -7 -42 5 -3 8
-6 128 -6 267 l0 252 163 17 c169 17 223 29 572 128 174 49 312 84 347 88 4 1
23 -20 43 -45z m-3149 -9 c15 -23 15 -27 0 -50 -10 -15 -26 -25 -41 -25 -15 0
-31 10 -41 25 -15 23 -15 27 0 50 10 15 26 25 41 25 15 0 31 -10 41 -25z
m-1247 -190 c129 -87 237 -143 376 -196 l100 -38 3 -140 3 -141 -118 7 c-65 5
-217 8 -338 8 -209 -1 -224 -2 -297 -27 -98 -33 -191 -85 -258 -145 l-53 -47
7 59 c10 81 59 224 107 315 95 178 297 420 351 420 3 0 56 -34 117 -75z m2836
49 c44 -8 146 -20 227 -26 l147 -12 6 -35 c3 -20 5 -145 3 -277 l-3 -242 -120
-21 c-133 -23 -447 -63 -677 -86 -157 -16 -430 -20 -586 -9 l-92 7 0 67 c0 37
9 112 21 168 11 55 23 129 27 163 l7 62 135 42 135 42 15 -48 c18 -60 45 -88
91 -95 28 -5 41 -1 66 20 l31 26 4 -63 c7 -111 68 -197 139 -197 43 0 65 29
94 125 15 50 36 108 48 130 l20 40 11 -26 c27 -64 65 -76 112 -36 38 33 43
105 15 214 -12 45 -21 85 -21 88 0 4 15 4 33 1 17 -4 68 -14 112 -22z m-1471
-70 c7 -19 -10 -44 -30 -44 -20 0 -36 34 -22 48 17 17 45 15 52 -4z m371 -231
c-4 -21 -15 -84 -26 -139 -11 -56 -23 -135 -27 -176 l-7 -75 -335 43 c-184 23
-416 49 -515 58 -99 9 -203 19 -231 22 l-51 5 -5 127 c-3 70 -5 128 -4 128 0
1 51 -9 111 -22 302 -64 615 -51 975 40 128 32 122 33 115 -11z m-2192 -877
c141 -105 431 -187 856 -241 l54 -7 -7 -191 c-3 -105 -10 -195 -14 -199 -14
-14 -216 57 -351 122 -212 103 -363 219 -470 360 -58 78 -118 180 -106 180 4
0 21 -11 38 -24z m4662 -95 c-24 -21 -199 -133 -280 -179 -159 -89 -565 -246
-585 -226 -9 9 -40 180 -40 224 0 25 2 25 163 48 89 12 290 49 447 81 329 67
307 64 295 52z m-3455 -181 c74 -6 272 -13 440 -15 168 -3 324 -8 348 -11 l42
-5 0 -53 c0 -113 -37 -397 -54 -414 -9 -8 -413 15 -571 33 -129 15 -299 44
-405 68 l-55 13 1 59 c1 33 5 124 9 203 l7 143 52 -6 c28 -3 112 -10 186 -15z
m2494 -12 c2 -18 12 -79 21 -136 9 -57 15 -105 13 -108 -8 -8 -266 -75 -417
-109 -273 -61 -563 -102 -866 -125 -163 -12 -405 -13 -405 -2 0 4 7 45 15 92
12 73 35 305 35 361 0 18 19 19 488 19 458 0 821 11 992 29 125 14 119 15 124
-21z"/>
<path d="M4685 6739 c-339 -29 -560 -90 -734 -203 -97 -62 -166 -129 -253
-244 -40 -52 -95 -113 -122 -134 -102 -81 -253 -141 -429 -173 -98 -18 -98
-18 -92 -44 4 -14 8 -27 9 -28 5 -5 171 27 244 47 198 55 317 136 445 304 74
98 132 155 206 205 186 127 411 188 794 216 l87 7 0 29 c0 33 10 32 -155 18z"/>
</g>
</svg>
